<svg xmlns="http://www.w3.org/2000/svg" viewBox="0 0 52 52"><title>link</title><g id="link"><g id="link-2" data-name="link"><path d="M34.41,2.87,22.85,14.43a3,3,0,0,0,0,4.21L33.36,29.15a3,3,0,0,0,4.21,0L49.13,17.59a3,3,0,0,0,0-4.2L38.62,2.87A3,3,0,0,0,34.41,2.87Zm2.1,6.31,6.31,6.31-7.36,7.36-6.31-6.31Z" fill="#ffcd02"/><path d="M14.43,22.85,2.87,34.41a3,3,0,0,0,0,4.2L13.38,49.13a3,3,0,0,0,4.2,0L29.15,37.57a3,3,0,0,0,0-4.21L18.64,22.85A3,3,0,0,0,14.43,22.85Zm2.1,6.31,6.31,6.31-7.36,7.36L9.18,36.51Z" fill="#ffcd02"/><path d="M17.59,30.21a3,3,0,0,0,0,4.21h0a3,3,0,0,0,4.21,0L34.41,21.79a3,3,0,0,0,0-4.21h0a3,3,0,0,0-4.21,0Z" fill="#ffcd02"/><g opacity="0.1"><rect x="29.86" y="23.68" width="5.95" height="1.49" transform="translate(-7.66 30.33) rotate(-44.95)"/><rect x="21.45" y="32.09" width="5.95" height="1.49" transform="translate(-16.06 26.89) rotate(-45)"/></g><g opacity="0.3"><path d="M46.41,15.49h0a1.49,1.49,0,0,0-.06-.43A1.48,1.48,0,0,1,46.41,15.49Z" fill="#fff"/><path d="M35.46,22.85l7.36-7.36h3.57A1.43,1.43,0,0,1,46,16.54L36.51,26a1.43,1.43,0,0,1-1.05.41v0a1.45,1.45,0,0,1-.39-.08h0a1.43,1.43,0,0,1-.67-.36l-1.05-1.05L32.31,23.9l2.11-2.1Z" fill="#fff"/><path d="M25.57,16.54h3.59l1.05,1.05-2.1,2.1-1-1.05L26,17.59A1.48,1.48,0,0,1,25.57,16.54Z" fill="#fff"/><path d="M9.18,36.51l6.31,6.31,7.36-7.36h3.57A1.43,1.43,0,0,1,26,36.51L16.54,46a1.42,1.42,0,0,1-1.05.42v0A1.47,1.47,0,0,1,14.43,46l-1-1.05L7.08,38.62,6,37.57a1.48,1.48,0,0,1-.44-1.05Z" fill="#fff"/><path d="M26.36,35.08a1.44,1.44,0,0,1,.08.39h0A1.54,1.54,0,0,0,26.36,35.08Z" fill="#fff"/></g><g opacity="0.1"><path d="M25.64,16.92a1.41,1.41,0,0,1-.08-.39h0A1.54,1.54,0,0,0,25.64,16.92Z"/><path d="M26,15.49,35.46,6a1.43,1.43,0,0,1,1.05-.41v0A1.48,1.48,0,0,1,37.57,6l1,1.05,6.31,6.31,1.05,1a1.49,1.49,0,0,1,.43,1.05H42.82L36.51,9.18l-7.36,7.36H25.58A1.43,1.43,0,0,1,26,15.49Z"/><path d="M5.59,36.51h0a1.49,1.49,0,0,0,.06.43A1.45,1.45,0,0,1,5.59,36.51Z"/><path d="M15.49,26a1.43,1.43,0,0,1,1.05-.42v0a1.44,1.44,0,0,1,.39.08h0a1.43,1.43,0,0,1,.67.36l1.05,1.05,1.05,1.05-2.1,2.1-1.05-1.05L9.18,36.51H5.61A1.43,1.43,0,0,1,6,35.46Z"/><path d="M24.95,33.36,26,34.41a1.48,1.48,0,0,1,.43,1.05H22.85L21.8,34.41l2.1-2.1Z"/></g><path d="M34.41,21.79,21.8,34.41a3,3,0,0,1-4.21,0L34.41,17.59A3,3,0,0,1,34.41,21.79Z" opacity="0.1"/></g></g></svg>